G75*
G70*
%OFA0B0*%
%FSLAX24Y24*%
%IPPOS*%
%LPD*%
%AMOC8*
5,1,8,0,0,1.08239X$1,22.5*
%
%ADD10C,0.0000*%
D10*
X000111Y000141D02*
X000111Y011952D01*
X019796Y011952D01*
X019796Y000141D01*
X000111Y000141D01*
X001568Y001224D02*
X001570Y001259D01*
X001576Y001294D01*
X001586Y001328D01*
X001599Y001361D01*
X001616Y001392D01*
X001637Y001420D01*
X001660Y001447D01*
X001687Y001470D01*
X001715Y001491D01*
X001746Y001508D01*
X001779Y001521D01*
X001813Y001531D01*
X001848Y001537D01*
X001883Y001539D01*
X001918Y001537D01*
X001953Y001531D01*
X001987Y001521D01*
X002020Y001508D01*
X002051Y001491D01*
X002079Y001470D01*
X002106Y001447D01*
X002129Y001420D01*
X002150Y001392D01*
X002167Y001361D01*
X002180Y001328D01*
X002190Y001294D01*
X002196Y001259D01*
X002198Y001224D01*
X002196Y001189D01*
X002190Y001154D01*
X002180Y001120D01*
X002167Y001087D01*
X002150Y001056D01*
X002129Y001028D01*
X002106Y001001D01*
X002079Y000978D01*
X002051Y000957D01*
X002020Y000940D01*
X001987Y000927D01*
X001953Y000917D01*
X001918Y000911D01*
X001883Y000909D01*
X001848Y000911D01*
X001813Y000917D01*
X001779Y000927D01*
X001746Y000940D01*
X001715Y000957D01*
X001687Y000978D01*
X001660Y001001D01*
X001637Y001028D01*
X001616Y001056D01*
X001599Y001087D01*
X001586Y001120D01*
X001576Y001154D01*
X001570Y001189D01*
X001568Y001224D01*
X001568Y010869D02*
X001570Y010904D01*
X001576Y010939D01*
X001586Y010973D01*
X001599Y011006D01*
X001616Y011037D01*
X001637Y011065D01*
X001660Y011092D01*
X001687Y011115D01*
X001715Y011136D01*
X001746Y011153D01*
X001779Y011166D01*
X001813Y011176D01*
X001848Y011182D01*
X001883Y011184D01*
X001918Y011182D01*
X001953Y011176D01*
X001987Y011166D01*
X002020Y011153D01*
X002051Y011136D01*
X002079Y011115D01*
X002106Y011092D01*
X002129Y011065D01*
X002150Y011037D01*
X002167Y011006D01*
X002180Y010973D01*
X002190Y010939D01*
X002196Y010904D01*
X002198Y010869D01*
X002196Y010834D01*
X002190Y010799D01*
X002180Y010765D01*
X002167Y010732D01*
X002150Y010701D01*
X002129Y010673D01*
X002106Y010646D01*
X002079Y010623D01*
X002051Y010602D01*
X002020Y010585D01*
X001987Y010572D01*
X001953Y010562D01*
X001918Y010556D01*
X001883Y010554D01*
X001848Y010556D01*
X001813Y010562D01*
X001779Y010572D01*
X001746Y010585D01*
X001715Y010602D01*
X001687Y010623D01*
X001660Y010646D01*
X001637Y010673D01*
X001616Y010701D01*
X001599Y010732D01*
X001586Y010765D01*
X001576Y010799D01*
X001570Y010834D01*
X001568Y010869D01*
M02*
