%
M48
M72
T01C0.0120
T02C0.0236
T03C0.0394
T04C0.0400
T05C0.0512
T06C0.0630
%
T01
X3460Y4047
X3460Y4547
X3460Y5047
X3460Y7047
X3460Y8047
X5330Y7228
X9444Y9590
X9070Y10377
X5527Y10771
X10448Y8114
X12515Y8114
X13991Y7645
X12023Y6391
X11281Y5373
X9641Y6047
X9464Y4866
X17928Y5653
X17928Y3488
X17928Y1322
T02
X1885Y2547
X1885Y3047
X1885Y3547
X1885Y4047
X1885Y4547
X1885Y5047
X1885Y5547
X1885Y6047
X1885Y6547
X1885Y7047
X1885Y7547
X1885Y8047
X1885Y8547
X1885Y9047
X1885Y9547
T03
X11220Y10271
X12220Y10271
X13220Y10271
X13220Y11271
X12220Y11271
X11220Y11271
X10723Y2602
X13716Y2602
T04
X15247Y8984
X15247Y9984
X15247Y10984
T05
X3420Y11072
X3420Y1021
T06
X1885Y1224
X1885Y10869
M30
