G75*
G70*
%OFA0B0*%
%FSLAX24Y24*%
%IPPOS*%
%LPD*%
%AMOC8*
5,1,8,0,0,1.08239X$1,22.5*
%
%ADD10C,0.0000*%
%ADD11C,0.0120*%
%ADD12C,0.0090*%
%ADD13C,0.0080*%
%ADD14C,0.0060*%
%ADD15C,0.0070*%
%ADD16C,0.0100*%
%ADD17C,0.0197*%
%ADD18C,0.0300*%
%ADD19R,0.0200X0.0300*%
%ADD20R,0.0400X0.0300*%
D10*
X000111Y000141D02*
X000111Y011952D01*
X019796Y011952D01*
X019796Y000141D01*
X000111Y000141D01*
X001568Y001224D02*
X001570Y001259D01*
X001576Y001294D01*
X001586Y001328D01*
X001599Y001361D01*
X001616Y001392D01*
X001637Y001420D01*
X001660Y001447D01*
X001687Y001470D01*
X001715Y001491D01*
X001746Y001508D01*
X001779Y001521D01*
X001813Y001531D01*
X001848Y001537D01*
X001883Y001539D01*
X001918Y001537D01*
X001953Y001531D01*
X001987Y001521D01*
X002020Y001508D01*
X002051Y001491D01*
X002079Y001470D01*
X002106Y001447D01*
X002129Y001420D01*
X002150Y001392D01*
X002167Y001361D01*
X002180Y001328D01*
X002190Y001294D01*
X002196Y001259D01*
X002198Y001224D01*
X002196Y001189D01*
X002190Y001154D01*
X002180Y001120D01*
X002167Y001087D01*
X002150Y001056D01*
X002129Y001028D01*
X002106Y001001D01*
X002079Y000978D01*
X002051Y000957D01*
X002020Y000940D01*
X001987Y000927D01*
X001953Y000917D01*
X001918Y000911D01*
X001883Y000909D01*
X001848Y000911D01*
X001813Y000917D01*
X001779Y000927D01*
X001746Y000940D01*
X001715Y000957D01*
X001687Y000978D01*
X001660Y001001D01*
X001637Y001028D01*
X001616Y001056D01*
X001599Y001087D01*
X001586Y001120D01*
X001576Y001154D01*
X001570Y001189D01*
X001568Y001224D01*
X001568Y010869D02*
X001570Y010904D01*
X001576Y010939D01*
X001586Y010973D01*
X001599Y011006D01*
X001616Y011037D01*
X001637Y011065D01*
X001660Y011092D01*
X001687Y011115D01*
X001715Y011136D01*
X001746Y011153D01*
X001779Y011166D01*
X001813Y011176D01*
X001848Y011182D01*
X001883Y011184D01*
X001918Y011182D01*
X001953Y011176D01*
X001987Y011166D01*
X002020Y011153D01*
X002051Y011136D01*
X002079Y011115D01*
X002106Y011092D01*
X002129Y011065D01*
X002150Y011037D01*
X002167Y011006D01*
X002180Y010973D01*
X002190Y010939D01*
X002196Y010904D01*
X002198Y010869D01*
X002196Y010834D01*
X002190Y010799D01*
X002180Y010765D01*
X002167Y010732D01*
X002150Y010701D01*
X002129Y010673D01*
X002106Y010646D01*
X002079Y010623D01*
X002051Y010602D01*
X002020Y010585D01*
X001987Y010572D01*
X001953Y010562D01*
X001918Y010556D01*
X001883Y010554D01*
X001848Y010556D01*
X001813Y010562D01*
X001779Y010572D01*
X001746Y010585D01*
X001715Y010602D01*
X001687Y010623D01*
X001660Y010646D01*
X001637Y010673D01*
X001616Y010701D01*
X001599Y010732D01*
X001586Y010765D01*
X001576Y010799D01*
X001570Y010834D01*
X001568Y010869D01*
D11*
X004986Y001353D02*
X005320Y001353D01*
X005431Y001242D01*
X005431Y001019D01*
X005320Y000908D01*
X004986Y000908D01*
X004986Y000685D02*
X004986Y001353D01*
X005711Y001242D02*
X005711Y001131D01*
X005822Y001019D01*
X006045Y001019D01*
X006156Y000908D01*
X006156Y000797D01*
X006045Y000685D01*
X005822Y000685D01*
X005711Y000797D01*
X005711Y001242D02*
X005822Y001353D01*
X006045Y001353D01*
X006156Y001242D01*
X006436Y001353D02*
X006436Y000797D01*
X006547Y000685D01*
X006770Y000685D01*
X006881Y000797D01*
X006881Y001353D01*
X007161Y001131D02*
X007272Y001131D01*
X007383Y001019D01*
X007495Y001131D01*
X007606Y001019D01*
X007606Y000685D01*
X007383Y000685D02*
X007383Y001019D01*
X007161Y001131D02*
X007161Y000685D01*
X007886Y000797D02*
X007997Y000685D01*
X008220Y000685D01*
X008331Y000797D01*
X008331Y001019D01*
X008220Y001131D01*
X007997Y001131D01*
X007886Y001019D01*
X007886Y000797D01*
X008611Y000685D02*
X008611Y001131D01*
X008945Y001131D01*
X009056Y001019D01*
X009056Y000685D01*
X018477Y000903D02*
X018477Y001126D01*
X018589Y001237D01*
X018700Y001237D01*
X018811Y001126D01*
X018923Y001237D01*
X019034Y001237D01*
X019145Y001126D01*
X019145Y000903D01*
X019034Y000792D01*
X018811Y001014D02*
X018811Y001126D01*
X018589Y000792D02*
X018477Y000903D01*
X019034Y001517D02*
X019034Y001628D01*
X019145Y001628D01*
X019145Y001517D01*
X019034Y001517D01*
X019034Y001879D02*
X019145Y001990D01*
X019145Y002213D01*
X019034Y002324D01*
X018923Y002324D01*
X018811Y002213D01*
X018811Y002102D01*
X018811Y002213D02*
X018700Y002324D01*
X018589Y002324D01*
X018477Y002213D01*
X018477Y001990D01*
X018589Y001879D01*
X018477Y002604D02*
X018923Y002604D01*
X019145Y002827D01*
X018923Y003049D01*
X018477Y003049D01*
X018477Y004138D02*
X018811Y004138D01*
X018700Y004361D01*
X018700Y004472D01*
X018811Y004583D01*
X019034Y004583D01*
X019145Y004472D01*
X019145Y004249D01*
X019034Y004138D01*
X018477Y004138D02*
X018477Y004583D01*
X018477Y004863D02*
X018923Y004863D01*
X019145Y005086D01*
X018923Y005308D01*
X018477Y005308D01*
X018700Y006303D02*
X018477Y006526D01*
X019145Y006526D01*
X019145Y006303D02*
X019145Y006749D01*
X019145Y007028D02*
X018700Y007474D01*
X018589Y007474D01*
X018477Y007362D01*
X018477Y007140D01*
X018589Y007028D01*
X019145Y007028D02*
X019145Y007474D01*
X018923Y007753D02*
X019145Y007976D01*
X018923Y008199D01*
X018477Y008199D01*
X018477Y007753D02*
X018923Y007753D01*
D12*
X018786Y009290D02*
X018595Y009290D01*
X018595Y009673D01*
X018786Y009673D01*
X018850Y009609D01*
X018850Y009354D01*
X018786Y009290D01*
X019030Y009482D02*
X019285Y009482D01*
X019157Y009609D02*
X019157Y009354D01*
X018415Y009290D02*
X018160Y009290D01*
X018160Y009673D01*
X018415Y009673D01*
X018287Y009482D02*
X018160Y009482D01*
X017980Y009290D02*
X017725Y009290D01*
X017725Y009673D01*
X017725Y010275D02*
X017980Y010275D01*
X018160Y010275D02*
X018415Y010275D01*
X018595Y010275D02*
X018786Y010275D01*
X018850Y010338D01*
X018850Y010594D01*
X018786Y010657D01*
X018595Y010657D01*
X018595Y010275D01*
X018287Y010466D02*
X018160Y010466D01*
X018160Y010657D02*
X018160Y010275D01*
X017725Y010275D02*
X017725Y010657D01*
X018160Y010657D02*
X018415Y010657D01*
X019030Y010466D02*
X019285Y010466D01*
X018786Y011259D02*
X018595Y011259D01*
X018595Y011642D01*
X018786Y011642D01*
X018850Y011578D01*
X018850Y011323D01*
X018786Y011259D01*
X019030Y011450D02*
X019285Y011450D01*
X018415Y011259D02*
X018160Y011259D01*
X018160Y011642D01*
X018415Y011642D01*
X018287Y011450D02*
X018160Y011450D01*
X017980Y011259D02*
X017725Y011259D01*
X017725Y011642D01*
D13*
X014364Y011131D02*
X014364Y010922D01*
X014364Y011026D02*
X014050Y011026D01*
X014155Y010922D01*
X014103Y010769D02*
X014207Y010769D01*
X014260Y010716D01*
X014260Y010559D01*
X014364Y010559D02*
X014050Y010559D01*
X014050Y010716D01*
X014103Y010769D01*
X014050Y010406D02*
X014050Y010301D01*
X014050Y010354D02*
X014312Y010354D01*
X014364Y010301D01*
X014364Y010249D01*
X014312Y010197D01*
X014309Y008228D02*
X014309Y007914D01*
X014204Y007914D02*
X014414Y007914D01*
X014567Y007967D02*
X014619Y007914D01*
X014724Y007914D01*
X014776Y007967D01*
X014776Y008019D01*
X014724Y008071D01*
X014671Y008071D01*
X014724Y008071D02*
X014776Y008124D01*
X014776Y008176D01*
X014724Y008228D01*
X014619Y008228D01*
X014567Y008176D01*
X014309Y008228D02*
X014204Y008124D01*
X014051Y008176D02*
X014051Y008071D01*
X013999Y008019D01*
X013842Y008019D01*
X013946Y008019D02*
X014051Y007914D01*
X013842Y007914D02*
X013842Y008228D01*
X013999Y008228D01*
X014051Y008176D01*
X015318Y007982D02*
X015318Y007668D01*
X015318Y007773D02*
X015475Y007773D01*
X015527Y007825D01*
X015527Y007930D01*
X015475Y007982D01*
X015318Y007982D01*
X015423Y007773D02*
X015527Y007668D01*
X015681Y007668D02*
X015890Y007668D01*
X015785Y007668D02*
X015785Y007982D01*
X015681Y007878D01*
X016043Y007825D02*
X016200Y007825D01*
X016252Y007773D01*
X016252Y007721D01*
X016200Y007668D01*
X016095Y007668D01*
X016043Y007721D01*
X016043Y007825D01*
X016148Y007930D01*
X016252Y007982D01*
X017321Y007982D02*
X017321Y007668D01*
X017478Y007668D01*
X017530Y007720D01*
X017530Y007929D01*
X017478Y007982D01*
X017321Y007982D01*
X017683Y007929D02*
X017735Y007982D01*
X017840Y007982D01*
X017892Y007929D01*
X017892Y007877D01*
X017840Y007825D01*
X017892Y007772D01*
X017892Y007720D01*
X017840Y007668D01*
X017735Y007668D01*
X017683Y007720D01*
X017788Y007825D02*
X017840Y007825D01*
X017840Y005423D02*
X017735Y005423D01*
X017683Y005370D01*
X017530Y005370D02*
X017478Y005423D01*
X017321Y005423D01*
X017321Y005109D01*
X017478Y005109D01*
X017530Y005161D01*
X017530Y005370D01*
X017683Y005109D02*
X017892Y005318D01*
X017892Y005370D01*
X017840Y005423D01*
X017892Y005109D02*
X017683Y005109D01*
X016252Y005162D02*
X016200Y005109D01*
X016095Y005109D01*
X016043Y005162D01*
X016043Y005266D02*
X016148Y005319D01*
X016200Y005319D01*
X016252Y005266D01*
X016252Y005162D01*
X016043Y005266D02*
X016043Y005423D01*
X016252Y005423D01*
X015785Y005423D02*
X015785Y005109D01*
X015681Y005109D02*
X015890Y005109D01*
X015527Y005109D02*
X015423Y005214D01*
X015475Y005214D02*
X015318Y005214D01*
X015318Y005109D02*
X015318Y005423D01*
X015475Y005423D01*
X015527Y005371D01*
X015527Y005266D01*
X015475Y005214D01*
X015681Y005319D02*
X015785Y005423D01*
X013628Y005430D02*
X013628Y005325D01*
X013576Y005273D01*
X013471Y005273D01*
X013419Y005325D01*
X013419Y005430D02*
X013524Y005482D01*
X013576Y005482D01*
X013628Y005430D01*
X013419Y005430D02*
X013419Y005587D01*
X013628Y005587D01*
X013266Y005534D02*
X013213Y005587D01*
X013109Y005587D01*
X013056Y005534D01*
X013056Y005325D01*
X013109Y005273D01*
X013213Y005273D01*
X013266Y005325D01*
X009363Y005897D02*
X009153Y005897D01*
X009258Y005897D02*
X009258Y006211D01*
X009153Y006106D01*
X008896Y006211D02*
X008896Y005897D01*
X009000Y005897D02*
X008791Y005897D01*
X008638Y005897D02*
X008533Y006001D01*
X008585Y006001D02*
X008428Y006001D01*
X008428Y005897D02*
X008428Y006211D01*
X008585Y006211D01*
X008638Y006158D01*
X008638Y006054D01*
X008585Y006001D01*
X008791Y006106D02*
X008896Y006211D01*
X008948Y007078D02*
X008843Y007078D01*
X008791Y007130D01*
X008791Y007182D01*
X008843Y007235D01*
X008948Y007235D01*
X009000Y007182D01*
X009000Y007130D01*
X008948Y007078D01*
X008638Y007078D02*
X008533Y007182D01*
X008585Y007182D02*
X008428Y007182D01*
X008428Y007078D02*
X008428Y007392D01*
X008585Y007392D01*
X008638Y007339D01*
X008638Y007235D01*
X008585Y007182D01*
X008791Y007287D02*
X008791Y007339D01*
X008843Y007392D01*
X008948Y007392D01*
X009000Y007339D01*
X009000Y007287D01*
X008948Y007235D01*
X008843Y007235D02*
X008791Y007287D01*
X007711Y007280D02*
X007711Y007332D01*
X007659Y007385D01*
X007554Y007385D01*
X007502Y007332D01*
X007348Y007332D02*
X007296Y007385D01*
X007191Y007385D01*
X007139Y007332D01*
X007139Y007123D01*
X007191Y007071D01*
X007296Y007071D01*
X007348Y007123D01*
X007502Y007071D02*
X007711Y007280D01*
X007711Y007071D02*
X007502Y007071D01*
X007511Y006211D02*
X007511Y006054D01*
X007616Y006106D01*
X007668Y006106D01*
X007721Y006054D01*
X007721Y005949D01*
X007668Y005897D01*
X007564Y005897D01*
X007511Y005949D01*
X007358Y005897D02*
X007254Y006001D01*
X007306Y006001D02*
X007149Y006001D01*
X007149Y005897D02*
X007149Y006211D01*
X007306Y006211D01*
X007358Y006158D01*
X007358Y006054D01*
X007306Y006001D01*
X007511Y006211D02*
X007721Y006211D01*
X006244Y006158D02*
X006192Y006211D01*
X006087Y006211D01*
X006035Y006158D01*
X005882Y006158D02*
X005882Y006054D01*
X005829Y006001D01*
X005673Y006001D01*
X005777Y006001D02*
X005882Y005897D01*
X006035Y005897D02*
X006244Y006106D01*
X006244Y006158D01*
X006244Y005897D02*
X006035Y005897D01*
X005882Y006158D02*
X005829Y006211D01*
X005673Y006211D01*
X005673Y005897D01*
X005725Y005029D02*
X005673Y004977D01*
X005673Y004768D01*
X005725Y004716D01*
X005829Y004716D01*
X005882Y004768D01*
X006035Y004768D02*
X006035Y004873D01*
X006192Y004873D01*
X006244Y004820D01*
X006244Y004768D01*
X006192Y004716D01*
X006087Y004716D01*
X006035Y004768D01*
X006035Y004873D02*
X006140Y004977D01*
X006244Y005029D01*
X005882Y004977D02*
X005829Y005029D01*
X005725Y005029D01*
X007149Y004977D02*
X007149Y004768D01*
X007201Y004716D01*
X007306Y004716D01*
X007358Y004768D01*
X007511Y004768D02*
X007564Y004716D01*
X007668Y004716D01*
X007721Y004768D01*
X007721Y004820D01*
X007668Y004873D01*
X007616Y004873D01*
X007668Y004873D02*
X007721Y004925D01*
X007721Y004977D01*
X007668Y005029D01*
X007564Y005029D01*
X007511Y004977D01*
X007358Y004977D02*
X007306Y005029D01*
X007201Y005029D01*
X007149Y004977D01*
X008428Y005029D02*
X008428Y004716D01*
X008428Y004820D02*
X008585Y004820D01*
X008638Y004873D01*
X008638Y004977D01*
X008585Y005029D01*
X008428Y005029D01*
X008533Y004820D02*
X008638Y004716D01*
X008791Y004768D02*
X008843Y004716D01*
X008948Y004716D01*
X009000Y004768D01*
X009000Y004977D01*
X008948Y005029D01*
X008843Y005029D01*
X008791Y004977D01*
X008791Y004925D01*
X008843Y004873D01*
X009000Y004873D01*
X008896Y003848D02*
X008896Y003534D01*
X009000Y003534D02*
X008791Y003534D01*
X008638Y003534D02*
X008533Y003639D01*
X008585Y003639D02*
X008428Y003639D01*
X008428Y003534D02*
X008428Y003848D01*
X008585Y003848D01*
X008638Y003796D01*
X008638Y003691D01*
X008585Y003639D01*
X008791Y003744D02*
X008896Y003848D01*
X009153Y003796D02*
X009206Y003848D01*
X009310Y003848D01*
X009363Y003796D01*
X009363Y003744D01*
X009153Y003534D01*
X009363Y003534D01*
X007721Y003587D02*
X007668Y003534D01*
X007564Y003534D01*
X007511Y003587D01*
X007511Y003691D01*
X007668Y003691D01*
X007721Y003639D01*
X007721Y003587D01*
X007616Y003796D02*
X007511Y003691D01*
X007616Y003796D02*
X007721Y003848D01*
X007358Y003796D02*
X007358Y003691D01*
X007306Y003639D01*
X007149Y003639D01*
X007254Y003639D02*
X007358Y003534D01*
X007149Y003534D02*
X007149Y003848D01*
X007306Y003848D01*
X007358Y003796D01*
X006244Y003796D02*
X006244Y003744D01*
X006192Y003691D01*
X006244Y003639D01*
X006244Y003587D01*
X006192Y003534D01*
X006087Y003534D01*
X006035Y003587D01*
X006140Y003691D02*
X006192Y003691D01*
X006244Y003796D02*
X006192Y003848D01*
X006087Y003848D01*
X006035Y003796D01*
X005882Y003796D02*
X005882Y003691D01*
X005829Y003639D01*
X005673Y003639D01*
X005777Y003639D02*
X005882Y003534D01*
X005673Y003534D02*
X005673Y003848D01*
X005829Y003848D01*
X005882Y003796D01*
X004126Y002240D02*
X004126Y001926D01*
X004230Y001926D02*
X004021Y001926D01*
X004021Y002135D02*
X004126Y002240D01*
X003268Y005681D02*
X003321Y005734D01*
X003321Y005788D01*
X003268Y005841D01*
X003001Y005841D01*
X003001Y005788D02*
X003001Y005895D01*
X003107Y006049D02*
X003001Y006156D01*
X003321Y006156D01*
X003321Y006049D02*
X003321Y006263D01*
X000821Y006263D02*
X000821Y006049D01*
X000607Y006263D01*
X000554Y006263D01*
X000501Y006210D01*
X000501Y006103D01*
X000554Y006049D01*
X000501Y005895D02*
X000501Y005788D01*
X000501Y005841D02*
X000768Y005841D01*
X000821Y005788D01*
X000821Y005734D01*
X000768Y005681D01*
X005673Y007130D02*
X005725Y007078D01*
X005829Y007078D01*
X005882Y007130D01*
X006035Y007130D02*
X006035Y007078D01*
X006035Y007130D02*
X006244Y007339D01*
X006244Y007392D01*
X006035Y007392D01*
X005882Y007339D02*
X005829Y007392D01*
X005725Y007392D01*
X005673Y007339D01*
X005673Y007130D01*
X005725Y008259D02*
X005829Y008259D01*
X005882Y008311D01*
X006035Y008311D02*
X006035Y008364D01*
X006087Y008416D01*
X006192Y008416D01*
X006244Y008364D01*
X006244Y008311D01*
X006192Y008259D01*
X006087Y008259D01*
X006035Y008311D01*
X006087Y008416D02*
X006035Y008468D01*
X006035Y008520D01*
X006087Y008573D01*
X006192Y008573D01*
X006244Y008520D01*
X006244Y008468D01*
X006192Y008416D01*
X005882Y008520D02*
X005829Y008573D01*
X005725Y008573D01*
X005673Y008520D01*
X005673Y008311D01*
X005725Y008259D01*
X007149Y008259D02*
X007149Y008573D01*
X007306Y008573D01*
X007358Y008520D01*
X007358Y008416D01*
X007306Y008364D01*
X007149Y008364D01*
X007254Y008364D02*
X007358Y008259D01*
X007511Y008416D02*
X007721Y008416D01*
X007668Y008259D02*
X007668Y008573D01*
X007511Y008416D01*
X008428Y008364D02*
X008585Y008364D01*
X008638Y008416D01*
X008638Y008520D01*
X008585Y008573D01*
X008428Y008573D01*
X008428Y008259D01*
X008533Y008364D02*
X008638Y008259D01*
X008791Y008259D02*
X009000Y008259D01*
X008896Y008259D02*
X008896Y008573D01*
X008791Y008468D01*
X009153Y008520D02*
X009153Y008311D01*
X009363Y008520D01*
X009363Y008311D01*
X009310Y008259D01*
X009206Y008259D01*
X009153Y008311D01*
X009153Y008520D02*
X009206Y008573D01*
X009310Y008573D01*
X009363Y008520D01*
X008791Y009440D02*
X008791Y009492D01*
X009000Y009702D01*
X009000Y009754D01*
X008791Y009754D01*
X008638Y009702D02*
X008638Y009597D01*
X008585Y009545D01*
X008428Y009545D01*
X008428Y009440D02*
X008428Y009754D01*
X008585Y009754D01*
X008638Y009702D01*
X008533Y009545D02*
X008638Y009440D01*
X009151Y010056D02*
X009360Y010056D01*
X009256Y010056D02*
X009256Y010370D01*
X009151Y010265D01*
X009513Y010213D02*
X009723Y010213D01*
X009876Y010056D02*
X010085Y010213D01*
X009876Y010370D01*
X010070Y010689D02*
X010070Y010794D01*
X010070Y010741D02*
X010384Y010741D01*
X010384Y010689D02*
X010384Y010794D01*
X010332Y010931D02*
X010384Y010983D01*
X010384Y011088D01*
X010332Y011140D01*
X010279Y011140D01*
X010227Y011088D01*
X010227Y010983D01*
X010175Y010931D01*
X010122Y010931D01*
X010070Y010983D01*
X010070Y011088D01*
X010122Y011140D01*
X010070Y011293D02*
X010070Y011450D01*
X010122Y011502D01*
X010227Y011502D01*
X010279Y011450D01*
X010279Y011293D01*
X010384Y011293D02*
X010070Y011293D01*
X009246Y010975D02*
X009037Y010975D01*
X009194Y011132D01*
X009194Y010818D01*
X008884Y010870D02*
X008831Y010818D01*
X008727Y010818D01*
X008674Y010870D01*
X008674Y011080D01*
X008727Y011132D01*
X008831Y011132D01*
X008884Y011080D01*
X007616Y009754D02*
X007616Y009440D01*
X007511Y009440D02*
X007721Y009440D01*
X007511Y009649D02*
X007616Y009754D01*
X007358Y009702D02*
X007306Y009754D01*
X007201Y009754D01*
X007149Y009702D01*
X007149Y009492D01*
X007201Y009440D01*
X007306Y009440D01*
X007358Y009492D01*
X006244Y009440D02*
X006035Y009440D01*
X006140Y009440D02*
X006140Y009754D01*
X006035Y009649D01*
X005882Y009597D02*
X005829Y009545D01*
X005673Y009545D01*
X005777Y009545D02*
X005882Y009440D01*
X005882Y009597D02*
X005882Y009702D01*
X005829Y009754D01*
X005673Y009754D01*
X005673Y009440D01*
X004618Y010054D02*
X004566Y010002D01*
X004461Y010002D01*
X004409Y010054D01*
X004409Y010159D02*
X004514Y010211D01*
X004566Y010211D01*
X004618Y010159D01*
X004618Y010054D01*
X004409Y010159D02*
X004409Y010316D01*
X004618Y010316D01*
X004256Y010002D02*
X004047Y010002D01*
X004151Y010002D02*
X004151Y010316D01*
X004047Y010211D01*
X004643Y011282D02*
X004748Y011282D01*
X004695Y011282D02*
X004695Y011596D01*
X004643Y011596D02*
X004748Y011596D01*
X004885Y011544D02*
X004885Y011335D01*
X004937Y011282D01*
X005042Y011282D01*
X005094Y011335D01*
X005247Y011282D02*
X005456Y011492D01*
X005456Y011544D01*
X005404Y011596D01*
X005299Y011596D01*
X005247Y011544D01*
X005094Y011544D02*
X005042Y011596D01*
X004937Y011596D01*
X004885Y011544D01*
X005247Y011282D02*
X005456Y011282D01*
X015318Y002864D02*
X015475Y002864D01*
X015527Y002812D01*
X015527Y002707D01*
X015475Y002655D01*
X015318Y002655D01*
X015318Y002550D02*
X015318Y002864D01*
X015423Y002655D02*
X015527Y002550D01*
X015681Y002550D02*
X015890Y002550D01*
X015785Y002550D02*
X015785Y002864D01*
X015681Y002759D01*
X016043Y002707D02*
X016252Y002707D01*
X016200Y002550D02*
X016200Y002864D01*
X016043Y002707D01*
X017321Y002864D02*
X017321Y002550D01*
X017478Y002550D01*
X017530Y002602D01*
X017530Y002811D01*
X017478Y002864D01*
X017321Y002864D01*
X017683Y002759D02*
X017788Y002864D01*
X017788Y002550D01*
X017892Y002550D02*
X017683Y002550D01*
X017173Y000995D02*
X016963Y000995D01*
X016963Y000838D01*
X017068Y000890D01*
X017120Y000890D01*
X017173Y000838D01*
X017173Y000733D01*
X017120Y000681D01*
X017016Y000681D01*
X016963Y000733D01*
X016810Y000681D02*
X016601Y000681D01*
X016705Y000681D02*
X016705Y000995D01*
X016601Y000890D01*
X016448Y000943D02*
X016238Y000733D01*
X016291Y000681D01*
X016395Y000681D01*
X016448Y000733D01*
X016448Y000943D01*
X016395Y000995D01*
X016291Y000995D01*
X016238Y000943D01*
X016238Y000733D01*
X016085Y000681D02*
X015876Y000681D01*
X016085Y000890D01*
X016085Y000943D01*
X016033Y000995D01*
X015928Y000995D01*
X015876Y000943D01*
X015723Y000838D02*
X015513Y000838D01*
X015360Y000786D02*
X015308Y000838D01*
X015151Y000838D01*
X015151Y000733D01*
X015203Y000681D01*
X015308Y000681D01*
X015360Y000733D01*
X015360Y000786D01*
X015256Y000943D02*
X015151Y000838D01*
X015256Y000943D02*
X015360Y000995D01*
D14*
X012910Y005965D02*
X011500Y005965D01*
X012300Y006265D02*
X012302Y006294D01*
X012308Y006322D01*
X012317Y006349D01*
X012331Y006374D01*
X012347Y006398D01*
X012367Y006418D01*
X012389Y006437D01*
X012413Y006451D01*
X012440Y006463D01*
X012467Y006471D01*
X012496Y006475D01*
X012524Y006475D01*
X012553Y006471D01*
X012580Y006463D01*
X012607Y006451D01*
X012631Y006437D01*
X012653Y006418D01*
X012673Y006398D01*
X012689Y006374D01*
X012703Y006349D01*
X012712Y006322D01*
X012718Y006294D01*
X012720Y006265D01*
X012718Y006236D01*
X012712Y006208D01*
X012703Y006181D01*
X012689Y006156D01*
X012673Y006132D01*
X012653Y006112D01*
X012631Y006093D01*
X012607Y006079D01*
X012580Y006067D01*
X012553Y006059D01*
X012524Y006055D01*
X012496Y006055D01*
X012467Y006059D01*
X012440Y006067D01*
X012413Y006079D01*
X012389Y006093D01*
X012367Y006112D01*
X012347Y006132D01*
X012331Y006156D01*
X012317Y006181D01*
X012308Y006208D01*
X012302Y006236D01*
X012300Y006265D01*
X015896Y008484D02*
X016896Y008484D01*
X016896Y009484D01*
X016896Y010484D01*
X016896Y011484D01*
X015896Y011484D01*
X015896Y010484D01*
X015896Y009484D01*
X015896Y008484D01*
X015896Y009484D02*
X016896Y009484D01*
X016896Y010484D02*
X015896Y010484D01*
X012910Y009325D02*
X011500Y009325D01*
X011853Y009048D02*
X011964Y009048D01*
X011908Y009048D02*
X011908Y008714D01*
X011853Y008714D02*
X011964Y008714D01*
X012094Y008769D02*
X012150Y008714D01*
X012261Y008714D01*
X012317Y008769D01*
X012457Y008714D02*
X012679Y008714D01*
X012568Y008714D02*
X012568Y009048D01*
X012457Y008936D01*
X012317Y008992D02*
X012261Y009048D01*
X012150Y009048D01*
X012094Y008992D01*
X012094Y008769D01*
D15*
X007261Y009880D02*
X007261Y010238D01*
X007261Y009880D02*
X006193Y009880D01*
X006189Y010412D02*
X006189Y010553D01*
X006189Y011002D02*
X006189Y011144D01*
X006193Y011670D02*
X007261Y011670D01*
X007261Y011312D01*
D16*
X010619Y011771D02*
X010619Y009771D01*
X013619Y009771D01*
X013619Y011771D01*
X010619Y011771D01*
X017551Y007468D02*
X017711Y007468D01*
X017711Y006988D01*
X017551Y006988D01*
X017551Y004909D02*
X017711Y004909D01*
X017711Y004429D01*
X017551Y004429D01*
X017551Y002350D02*
X017711Y002350D01*
X017711Y001870D01*
X017551Y001870D01*
X013694Y001421D02*
X012906Y001421D01*
X013300Y001814D02*
X013300Y001027D01*
X011725Y002602D02*
X011727Y002641D01*
X011733Y002680D01*
X011743Y002718D01*
X011756Y002755D01*
X011773Y002790D01*
X011793Y002824D01*
X011817Y002855D01*
X011844Y002884D01*
X011873Y002910D01*
X011905Y002933D01*
X011939Y002953D01*
X011975Y002969D01*
X012012Y002981D01*
X012051Y002990D01*
X012090Y002995D01*
X012129Y002996D01*
X012168Y002993D01*
X012207Y002986D01*
X012244Y002975D01*
X012281Y002961D01*
X012316Y002943D01*
X012349Y002922D01*
X012380Y002897D01*
X012408Y002870D01*
X012433Y002840D01*
X012455Y002807D01*
X012474Y002773D01*
X012489Y002737D01*
X012501Y002699D01*
X012509Y002661D01*
X012513Y002622D01*
X012513Y002582D01*
X012509Y002543D01*
X012501Y002505D01*
X012489Y002467D01*
X012474Y002431D01*
X012455Y002397D01*
X012433Y002364D01*
X012408Y002334D01*
X012380Y002307D01*
X012349Y002282D01*
X012316Y002261D01*
X012281Y002243D01*
X012244Y002229D01*
X012207Y002218D01*
X012168Y002211D01*
X012129Y002208D01*
X012090Y002209D01*
X012051Y002214D01*
X012012Y002223D01*
X011975Y002235D01*
X011939Y002251D01*
X011905Y002271D01*
X011873Y002294D01*
X011844Y002320D01*
X011817Y002349D01*
X011793Y002380D01*
X011773Y002414D01*
X011756Y002449D01*
X011743Y002486D01*
X011733Y002524D01*
X011727Y002563D01*
X011725Y002602D01*
X009757Y002602D02*
X009760Y002718D01*
X009768Y002834D01*
X009783Y002949D01*
X009802Y003063D01*
X009828Y003176D01*
X009859Y003288D01*
X009895Y003398D01*
X009937Y003506D01*
X009984Y003612D01*
X010036Y003715D01*
X010093Y003816D01*
X010155Y003914D01*
X010222Y004009D01*
X010293Y004100D01*
X010369Y004188D01*
X010449Y004272D01*
X010533Y004352D01*
X010621Y004428D01*
X010712Y004499D01*
X010807Y004566D01*
X010905Y004628D01*
X011006Y004685D01*
X011109Y004737D01*
X011215Y004784D01*
X011323Y004826D01*
X011433Y004862D01*
X011545Y004893D01*
X011658Y004919D01*
X011772Y004938D01*
X011887Y004953D01*
X012003Y004961D01*
X012119Y004964D01*
X012235Y004961D01*
X012351Y004953D01*
X012466Y004938D01*
X012580Y004919D01*
X012693Y004893D01*
X012805Y004862D01*
X012915Y004826D01*
X013023Y004784D01*
X013129Y004737D01*
X013232Y004685D01*
X013333Y004628D01*
X013431Y004566D01*
X013526Y004499D01*
X013617Y004428D01*
X013705Y004352D01*
X013789Y004272D01*
X013869Y004188D01*
X013945Y004100D01*
X014016Y004009D01*
X014083Y003914D01*
X014145Y003816D01*
X014202Y003715D01*
X014254Y003612D01*
X014301Y003506D01*
X014343Y003398D01*
X014379Y003288D01*
X014410Y003176D01*
X014436Y003063D01*
X014455Y002949D01*
X014470Y002834D01*
X014478Y002718D01*
X014481Y002602D01*
X014478Y002486D01*
X014470Y002370D01*
X014455Y002255D01*
X014436Y002141D01*
X014410Y002028D01*
X014379Y001916D01*
X014343Y001806D01*
X014301Y001698D01*
X014254Y001592D01*
X014202Y001489D01*
X014145Y001388D01*
X014083Y001290D01*
X014016Y001195D01*
X013945Y001104D01*
X013869Y001016D01*
X013789Y000932D01*
X013705Y000852D01*
X013617Y000776D01*
X013526Y000705D01*
X013431Y000638D01*
X013333Y000576D01*
X013232Y000519D01*
X013129Y000467D01*
X013023Y000420D01*
X012915Y000378D01*
X012805Y000342D01*
X012693Y000311D01*
X012580Y000285D01*
X012466Y000266D01*
X012351Y000251D01*
X012235Y000243D01*
X012119Y000240D01*
X012003Y000243D01*
X011887Y000251D01*
X011772Y000266D01*
X011658Y000285D01*
X011545Y000311D01*
X011433Y000342D01*
X011323Y000378D01*
X011215Y000420D01*
X011109Y000467D01*
X011006Y000519D01*
X010905Y000576D01*
X010807Y000638D01*
X010712Y000705D01*
X010621Y000776D01*
X010533Y000852D01*
X010449Y000932D01*
X010369Y001016D01*
X010293Y001104D01*
X010222Y001195D01*
X010155Y001290D01*
X010093Y001388D01*
X010036Y001489D01*
X009984Y001592D01*
X009937Y001698D01*
X009895Y001806D01*
X009859Y001916D01*
X009828Y002028D01*
X009802Y002141D01*
X009783Y002255D01*
X009768Y002370D01*
X009760Y002486D01*
X009757Y002602D01*
X010694Y003514D02*
X010894Y003514D01*
X010961Y003581D01*
X010961Y003647D01*
X010894Y003714D01*
X010694Y003714D01*
X010894Y003714D02*
X010961Y003781D01*
X010961Y003848D01*
X010894Y003914D01*
X010694Y003914D01*
X010694Y003514D01*
X011154Y003581D02*
X011154Y003914D01*
X011421Y003914D02*
X011421Y003581D01*
X011354Y003514D01*
X011221Y003514D01*
X011154Y003581D01*
X011615Y003581D02*
X011615Y003514D01*
X011881Y003514D01*
X012075Y003514D02*
X012075Y003581D01*
X012342Y003848D01*
X012342Y003914D01*
X012075Y003914D01*
X011881Y003914D02*
X011881Y003848D01*
X011615Y003581D01*
X011615Y003914D02*
X011881Y003914D01*
X012075Y003514D02*
X012342Y003514D01*
X012535Y003514D02*
X012802Y003514D01*
X012996Y003514D02*
X012996Y003914D01*
X013196Y003914D01*
X013262Y003848D01*
X013262Y003714D01*
X013196Y003647D01*
X012996Y003647D01*
X013129Y003647D02*
X013262Y003514D01*
X012802Y003914D02*
X012535Y003914D01*
X012535Y003514D01*
X012535Y003714D02*
X012669Y003714D01*
X002670Y000397D02*
X002670Y011696D01*
X001095Y011696D01*
X001095Y000397D01*
X002670Y000397D01*
D17*
X002473Y002110D02*
X001489Y002110D01*
X002473Y002110D02*
X002473Y009984D01*
D18*
X017146Y009984D02*
X019396Y009984D01*
X019396Y008984D02*
X017146Y008984D01*
X017146Y010984D02*
X019396Y010984D01*
D19*
X016996Y010984D03*
X016996Y009984D03*
X016996Y008984D03*
D20*
X015696Y008984D03*
X015696Y009984D03*
X015696Y010984D03*
M02*
