G75*
G70*
%OFA0B0*%
%FSLAX24Y24*%
%IPPOS*%
%LPD*%
%AMOC8*
5,1,8,0,0,1.08239X$1,22.5*
%
%ADD10C,0.0000*%
%ADD11R,0.0413X0.0551*%
%ADD12R,0.0870X0.0240*%
%ADD13R,0.0591X0.0315*%
%ADD14R,0.1181X0.0984*%
%ADD15R,0.0600X0.0600*%
%ADD16OC8,0.0600*%
%ADD17R,0.0551X0.0413*%
%ADD18R,0.0433X0.0591*%
%ADD19R,0.0984X0.0315*%
%ADD20C,0.1000*%
%ADD21C,0.0396*%
%ADD22R,0.0760X0.0760*%
%ADD23C,0.0760*%
%ADD24C,0.0600*%
%ADD25C,0.0240*%
%ADD26C,0.0320*%
%ADD27C,0.0280*%
%ADD28C,0.0160*%
D10*
X000111Y000141D02*
X000111Y011952D01*
X019796Y011952D01*
X019796Y000141D01*
X000111Y000141D01*
X001568Y001224D02*
X001570Y001259D01*
X001576Y001294D01*
X001586Y001328D01*
X001599Y001361D01*
X001616Y001392D01*
X001637Y001420D01*
X001660Y001447D01*
X001687Y001470D01*
X001715Y001491D01*
X001746Y001508D01*
X001779Y001521D01*
X001813Y001531D01*
X001848Y001537D01*
X001883Y001539D01*
X001918Y001537D01*
X001953Y001531D01*
X001987Y001521D01*
X002020Y001508D01*
X002051Y001491D01*
X002079Y001470D01*
X002106Y001447D01*
X002129Y001420D01*
X002150Y001392D01*
X002167Y001361D01*
X002180Y001328D01*
X002190Y001294D01*
X002196Y001259D01*
X002198Y001224D01*
X002196Y001189D01*
X002190Y001154D01*
X002180Y001120D01*
X002167Y001087D01*
X002150Y001056D01*
X002129Y001028D01*
X002106Y001001D01*
X002079Y000978D01*
X002051Y000957D01*
X002020Y000940D01*
X001987Y000927D01*
X001953Y000917D01*
X001918Y000911D01*
X001883Y000909D01*
X001848Y000911D01*
X001813Y000917D01*
X001779Y000927D01*
X001746Y000940D01*
X001715Y000957D01*
X001687Y000978D01*
X001660Y001001D01*
X001637Y001028D01*
X001616Y001056D01*
X001599Y001087D01*
X001586Y001120D01*
X001576Y001154D01*
X001570Y001189D01*
X001568Y001224D01*
X001568Y010869D02*
X001570Y010904D01*
X001576Y010939D01*
X001586Y010973D01*
X001599Y011006D01*
X001616Y011037D01*
X001637Y011065D01*
X001660Y011092D01*
X001687Y011115D01*
X001715Y011136D01*
X001746Y011153D01*
X001779Y011166D01*
X001813Y011176D01*
X001848Y011182D01*
X001883Y011184D01*
X001918Y011182D01*
X001953Y011176D01*
X001987Y011166D01*
X002020Y011153D01*
X002051Y011136D01*
X002079Y011115D01*
X002106Y011092D01*
X002129Y011065D01*
X002150Y011037D01*
X002167Y011006D01*
X002180Y010973D01*
X002190Y010939D01*
X002196Y010904D01*
X002198Y010869D01*
X002196Y010834D01*
X002190Y010799D01*
X002180Y010765D01*
X002167Y010732D01*
X002150Y010701D01*
X002129Y010673D01*
X002106Y010646D01*
X002079Y010623D01*
X002051Y010602D01*
X002020Y010585D01*
X001987Y010572D01*
X001953Y010562D01*
X001918Y010556D01*
X001883Y010554D01*
X001848Y010556D01*
X001813Y010562D01*
X001779Y010572D01*
X001746Y010585D01*
X001715Y010602D01*
X001687Y010623D01*
X001660Y010646D01*
X001637Y010673D01*
X001616Y010701D01*
X001599Y010732D01*
X001586Y010765D01*
X001576Y010799D01*
X001570Y010834D01*
X001568Y010869D01*
D11*
X005642Y008999D03*
X006390Y008999D03*
X007119Y008999D03*
X007867Y008999D03*
X008595Y008999D03*
X009343Y008999D03*
X009343Y007818D03*
X008595Y007818D03*
X007867Y007818D03*
X007119Y007818D03*
X006390Y007818D03*
X005642Y007818D03*
X005642Y006637D03*
X006390Y006637D03*
X007119Y006637D03*
X007867Y006637D03*
X008595Y006637D03*
X009343Y006637D03*
X009343Y005456D03*
X008595Y005456D03*
X007867Y005456D03*
X007119Y005456D03*
X006390Y005456D03*
X005642Y005456D03*
X005642Y004275D03*
X006390Y004275D03*
X007119Y004275D03*
X007867Y004275D03*
X008595Y004275D03*
X009343Y004275D03*
X009343Y003094D03*
X008595Y003094D03*
X007867Y003094D03*
X007119Y003094D03*
X006390Y003094D03*
X005642Y003094D03*
X011796Y005373D03*
X012544Y005373D03*
X015485Y004669D03*
X016233Y004669D03*
X016233Y002110D03*
X015485Y002110D03*
X015485Y007228D03*
X016233Y007228D03*
D12*
X013230Y007145D03*
X013230Y006645D03*
X013230Y006145D03*
X011180Y006145D03*
X011180Y006645D03*
X011180Y007145D03*
X011180Y007645D03*
X011180Y008145D03*
X011180Y008645D03*
X011180Y009145D03*
X013230Y009145D03*
X013230Y008645D03*
X013230Y008145D03*
X013230Y007645D03*
D13*
X005938Y010184D03*
X005938Y010775D03*
X005938Y011366D03*
D14*
X007040Y010775D03*
D15*
X011119Y010271D03*
D16*
X012119Y010271D03*
X013119Y010271D03*
X013119Y011271D03*
X012119Y011271D03*
X011119Y011271D03*
D17*
X008182Y011342D03*
X008182Y010594D03*
X014087Y009373D03*
X014087Y008625D03*
D18*
X017276Y007228D03*
X017985Y007228D03*
X017985Y004669D03*
X017276Y004669D03*
X017276Y002110D03*
X017985Y002110D03*
D19*
X004347Y002547D03*
X004347Y003047D03*
X004347Y003547D03*
X004347Y004047D03*
X004347Y004547D03*
X004347Y005047D03*
X004347Y005547D03*
X004347Y006047D03*
X004347Y006547D03*
X004347Y007047D03*
X004347Y007547D03*
X004347Y008047D03*
X004347Y008547D03*
X004347Y009047D03*
X004347Y009547D03*
D20*
X003418Y011072D03*
X003418Y001021D03*
D21*
X002081Y002547D02*
X001684Y002547D01*
X001684Y003047D02*
X002081Y003047D01*
X002081Y003547D02*
X001684Y003547D01*
X001684Y004047D02*
X002081Y004047D01*
X002081Y004547D02*
X001684Y004547D01*
X001684Y005047D02*
X002081Y005047D01*
X002081Y005547D02*
X001684Y005547D01*
X001684Y006047D02*
X002081Y006047D01*
X002081Y006547D02*
X001684Y006547D01*
X001684Y007047D02*
X002081Y007047D01*
X002081Y007547D02*
X001684Y007547D01*
X001684Y008047D02*
X002081Y008047D01*
X002081Y008547D02*
X001684Y008547D01*
X001684Y009047D02*
X002081Y009047D01*
X002081Y009547D02*
X001684Y009547D01*
D22*
X013615Y002602D03*
D23*
X010623Y002602D03*
D24*
X014846Y008984D02*
X015446Y008984D01*
X015446Y009984D02*
X014846Y009984D01*
X014846Y010984D02*
X015446Y010984D01*
D25*
X012119Y010271D02*
X012119Y008645D01*
X011180Y008645D01*
X011180Y008145D02*
X011922Y008145D01*
X011922Y006391D01*
X011180Y006645D02*
X010601Y006645D01*
X010446Y006490D01*
X010446Y004196D01*
X009343Y003094D01*
X008595Y003094D02*
X007867Y003094D01*
X008595Y003094D02*
X008595Y004275D01*
X007867Y004275D01*
X007119Y004275D02*
X006390Y004275D01*
X006390Y003094D01*
X006390Y002547D01*
X005147Y002547D01*
X005147Y003047D01*
X004347Y003047D01*
X001883Y003047D01*
X001883Y003547D02*
X004347Y003547D01*
X005642Y003547D01*
X005642Y003094D01*
X005147Y002547D02*
X004347Y002547D01*
X001883Y002547D01*
X003457Y004047D02*
X004347Y004047D01*
X004347Y004547D02*
X005642Y004547D01*
X005642Y004275D01*
X004347Y004547D02*
X003457Y004547D01*
X003457Y005047D02*
X004347Y005047D01*
X004347Y005547D02*
X001883Y005547D01*
X001883Y006047D02*
X004347Y006047D01*
X005124Y006047D01*
X005124Y006547D01*
X004347Y006547D01*
X001883Y006547D01*
X003457Y007047D02*
X004347Y007047D01*
X005623Y007047D01*
X005623Y006637D01*
X005642Y006637D01*
X005623Y007047D02*
X005623Y007818D01*
X005623Y008047D01*
X004347Y008047D01*
X003457Y008047D01*
X004347Y008547D02*
X001883Y008547D01*
X001883Y009047D02*
X004347Y009047D01*
X005115Y009047D01*
X005115Y009547D01*
X005938Y009547D01*
X006390Y009547D01*
X006390Y008999D01*
X007119Y008999D01*
X006390Y008999D02*
X006390Y007818D01*
X007119Y007818D01*
X007867Y007818D02*
X008595Y007818D01*
X008595Y008999D01*
X007867Y008999D01*
X009343Y008999D02*
X009343Y009590D01*
X011119Y010271D02*
X011180Y010254D01*
X011180Y009145D01*
X013230Y008145D02*
X014154Y008145D01*
X015071Y007228D01*
X015485Y007228D01*
X016233Y007228D02*
X017276Y007228D01*
X017985Y007228D02*
X017985Y006637D01*
X017827Y006637D01*
X014875Y006460D02*
X014875Y005279D01*
X015485Y004669D01*
X016233Y004669D02*
X017276Y004669D01*
X017985Y004669D02*
X017985Y004078D01*
X017827Y004078D01*
X017985Y002110D02*
X017985Y001519D01*
X017827Y001519D01*
X017276Y002110D02*
X016233Y002110D01*
X015485Y002110D02*
X014284Y003310D01*
X014284Y006243D01*
X013883Y006645D01*
X013230Y006645D01*
X013230Y007145D02*
X014190Y007145D01*
X014875Y006460D01*
X013890Y007645D02*
X013230Y007645D01*
X011180Y007645D02*
X009343Y007645D01*
X009343Y007818D01*
X010461Y007145D02*
X010003Y006686D01*
X010003Y005801D01*
X009658Y005456D01*
X009343Y005456D01*
X008595Y005456D02*
X008595Y006637D01*
X007867Y006637D01*
X007119Y006637D02*
X006390Y006637D01*
X006390Y006047D01*
X005124Y006047D01*
X005642Y005547D02*
X004347Y005547D01*
X005642Y005547D02*
X005642Y005456D01*
X005642Y005499D01*
X006390Y005456D02*
X006390Y006047D01*
X006390Y005456D02*
X007119Y005456D01*
X007867Y005456D02*
X008595Y005456D01*
X009540Y006047D02*
X009343Y006637D01*
X010461Y007145D02*
X011180Y007145D01*
X009363Y004866D02*
X009343Y004866D01*
X009343Y004275D01*
X007119Y003094D02*
X006390Y003094D01*
X005642Y007818D02*
X005623Y007818D01*
X005642Y008547D02*
X004347Y008547D01*
X005642Y008547D02*
X005642Y008999D01*
X005938Y009547D02*
X005938Y010184D01*
X005115Y009547D02*
X004347Y009547D01*
X001883Y009547D01*
X005938Y011366D02*
X005938Y011608D01*
X008182Y011608D01*
X008182Y011342D01*
D26*
X011119Y011342D01*
X011119Y011271D01*
X010347Y011271D01*
X010347Y008114D01*
X012414Y008114D02*
X012414Y006145D01*
X013230Y006145D01*
X013230Y005373D01*
X012544Y005373D01*
X011796Y005373D02*
X011180Y005373D01*
X011180Y003159D01*
X010623Y002602D01*
X011180Y005373D02*
X011180Y006145D01*
X013230Y008645D02*
X014068Y008645D01*
X014087Y008625D01*
X014087Y009373D02*
X014757Y009373D01*
X015146Y008984D01*
X008772Y010377D02*
X008772Y010594D01*
X008182Y010594D01*
X007040Y010594D01*
X007040Y010775D01*
X005938Y010775D01*
X005934Y010771D01*
X005426Y010771D01*
D27*
X005426Y010771D03*
X008772Y010377D03*
X009343Y009590D03*
X010347Y008114D03*
X012414Y008114D03*
X013890Y007645D03*
X011922Y006391D03*
X011180Y005373D03*
X009540Y006047D03*
X009363Y004866D03*
X003457Y005047D03*
X003457Y004547D03*
X003457Y004047D03*
X003457Y007047D03*
X003457Y008047D03*
X017827Y006637D03*
X017827Y004078D03*
X017827Y001519D03*
D28*
X013230Y009145D02*
X012611Y009145D01*
X012611Y010779D01*
X012119Y011271D01*
M02*
