G75*
G70*
%OFA0B0*%
%FSLAX24Y24*%
%IPPOS*%
%LPD*%
%AMOC8*
5,1,8,0,0,1.08239X$1,22.5*
%
%ADD10C,0.0000*%
%ADD11R,0.0413X0.0551*%
%ADD12R,0.0870X0.0240*%
%ADD13R,0.0591X0.0315*%
%ADD14R,0.1181X0.0984*%
%ADD15R,0.0551X0.0413*%
%ADD16R,0.0984X0.0315*%
%ADD17R,0.0433X0.0669*%
D10*
X000212Y000141D02*
X000212Y011952D01*
X019897Y011952D01*
X019897Y000141D01*
X000212Y000141D01*
X001570Y001224D02*
X001572Y001259D01*
X001578Y001294D01*
X001588Y001328D01*
X001601Y001361D01*
X001618Y001392D01*
X001639Y001420D01*
X001662Y001447D01*
X001689Y001470D01*
X001717Y001491D01*
X001748Y001508D01*
X001781Y001521D01*
X001815Y001531D01*
X001850Y001537D01*
X001885Y001539D01*
X001920Y001537D01*
X001955Y001531D01*
X001989Y001521D01*
X002022Y001508D01*
X002053Y001491D01*
X002081Y001470D01*
X002108Y001447D01*
X002131Y001420D01*
X002152Y001392D01*
X002169Y001361D01*
X002182Y001328D01*
X002192Y001294D01*
X002198Y001259D01*
X002200Y001224D01*
X002198Y001189D01*
X002192Y001154D01*
X002182Y001120D01*
X002169Y001087D01*
X002152Y001056D01*
X002131Y001028D01*
X002108Y001001D01*
X002081Y000978D01*
X002053Y000957D01*
X002022Y000940D01*
X001989Y000927D01*
X001955Y000917D01*
X001920Y000911D01*
X001885Y000909D01*
X001850Y000911D01*
X001815Y000917D01*
X001781Y000927D01*
X001748Y000940D01*
X001717Y000957D01*
X001689Y000978D01*
X001662Y001001D01*
X001639Y001028D01*
X001618Y001056D01*
X001601Y001087D01*
X001588Y001120D01*
X001578Y001154D01*
X001572Y001189D01*
X001570Y001224D01*
X001570Y010869D02*
X001572Y010904D01*
X001578Y010939D01*
X001588Y010973D01*
X001601Y011006D01*
X001618Y011037D01*
X001639Y011065D01*
X001662Y011092D01*
X001689Y011115D01*
X001717Y011136D01*
X001748Y011153D01*
X001781Y011166D01*
X001815Y011176D01*
X001850Y011182D01*
X001885Y011184D01*
X001920Y011182D01*
X001955Y011176D01*
X001989Y011166D01*
X002022Y011153D01*
X002053Y011136D01*
X002081Y011115D01*
X002108Y011092D01*
X002131Y011065D01*
X002152Y011037D01*
X002169Y011006D01*
X002182Y010973D01*
X002192Y010939D01*
X002198Y010904D01*
X002200Y010869D01*
X002198Y010834D01*
X002192Y010799D01*
X002182Y010765D01*
X002169Y010732D01*
X002152Y010701D01*
X002131Y010673D01*
X002108Y010646D01*
X002081Y010623D01*
X002053Y010602D01*
X002022Y010585D01*
X001989Y010572D01*
X001955Y010562D01*
X001920Y010556D01*
X001885Y010554D01*
X001850Y010556D01*
X001815Y010562D01*
X001781Y010572D01*
X001748Y010585D01*
X001717Y010602D01*
X001689Y010623D01*
X001662Y010646D01*
X001639Y010673D01*
X001618Y010701D01*
X001601Y010732D01*
X001588Y010765D01*
X001578Y010799D01*
X001572Y010834D01*
X001570Y010869D01*
D11*
X005743Y008999D03*
X006491Y008999D03*
X007220Y008999D03*
X007968Y008999D03*
X008696Y008999D03*
X009444Y008999D03*
X009444Y007818D03*
X008696Y007818D03*
X007968Y007818D03*
X007220Y007818D03*
X007220Y006637D03*
X007968Y006637D03*
X008696Y006637D03*
X009444Y006637D03*
X009444Y005456D03*
X008696Y005456D03*
X007968Y005456D03*
X007220Y005456D03*
X006491Y005456D03*
X005743Y005456D03*
X007220Y004275D03*
X007968Y004275D03*
X008696Y004275D03*
X009444Y004275D03*
X009444Y003094D03*
X008696Y003094D03*
X007968Y003094D03*
X007220Y003094D03*
X006491Y003094D03*
X005743Y003094D03*
X011897Y005373D03*
X012645Y005373D03*
X015586Y006440D03*
X016334Y006440D03*
X017160Y006440D03*
X017909Y006440D03*
X016334Y007621D03*
X015586Y007621D03*
X015586Y004275D03*
X016334Y004275D03*
X017160Y004275D03*
X017909Y004275D03*
X017909Y002110D03*
X017160Y002110D03*
X016334Y002110D03*
X015586Y002110D03*
D12*
X013331Y006145D03*
X013331Y006645D03*
X013331Y007145D03*
X013331Y007645D03*
X013331Y008145D03*
X013331Y008645D03*
X013331Y009145D03*
X011281Y009145D03*
X011281Y008645D03*
X011281Y008145D03*
X011281Y007645D03*
X011281Y007145D03*
X011281Y006645D03*
X011281Y006145D03*
D13*
X006038Y010184D03*
X006038Y010775D03*
X006038Y011366D03*
D14*
X007141Y010775D03*
D15*
X008479Y010594D03*
X008479Y011342D03*
D16*
X004349Y009547D03*
X004349Y009047D03*
X004349Y008547D03*
X004349Y008047D03*
X004349Y007547D03*
X004349Y007047D03*
X004349Y006547D03*
X004349Y006047D03*
X004349Y005547D03*
X004349Y005047D03*
X004349Y004547D03*
X004349Y004047D03*
X004349Y003547D03*
X004349Y003047D03*
X004349Y002547D03*
D17*
X005349Y004275D03*
X006491Y004275D03*
X006491Y006637D03*
X005349Y006637D03*
X005349Y007818D03*
X006491Y007818D03*
M02*
