%
M48
M72
T01C0.0120
T02C0.0236
T03C0.0394
T04C0.0400
T05C0.0591
T06C0.0630
%
T01
X3457Y4047
X3457Y4547
X3457Y5047
X3457Y7047
X3457Y8047
X5426Y10771
X8772Y10377
X9343Y9590
X10347Y8114
X12414Y8114
X13890Y7645
X11922Y6391
X11180Y5373
X9540Y6047
X9363Y4866
X17827Y4078
X17827Y1519
X17827Y6637
T02
X1883Y6547
X1883Y7047
X1883Y7547
X1883Y8047
X1883Y8547
X1883Y9047
X1883Y9547
X1883Y6047
X1883Y5547
X1883Y5047
X1883Y4547
X1883Y4047
X1883Y3547
X1883Y3047
X1883Y2547
T03
X10623Y2602
X13615Y2602
T04
X15146Y8984
X15146Y9984
X15146Y10984
X13119Y11271
X12119Y11271
X11119Y11271
X11119Y10271
X12119Y10271
X13119Y10271
T05
X3418Y11072
X3418Y1021
T06
X1883Y1224
X1883Y10869
M30
